<?xml version="1.0" encoding="UTF-8" standalone="no"?>
<!DOCTYPE svg PUBLIC "-//W3C//DTD SVG 1.1//EN"
 "http://www.w3.org/Graphics/SVG/1.1/DTD/svg11.dtd">
<!-- Generated by graphviz version 2.47.0 (20210316.0004)
 -->
<!-- Title: dependencies Pages: 1 -->
<svg width="708pt" height="211pt"
 viewBox="0.00 0.00 708.00 211.00" xmlns="http://www.w3.org/2000/svg" xmlns:xlink="http://www.w3.org/1999/xlink">
<g id="graph0" class="graph" transform="scale(1 1) rotate(0) translate(4 207)">
<title>dependencies</title>
<polygon fill="white" stroke="transparent" points="-4,4 -4,-207 704,-207 704,4 -4,4"/>
<text text-anchor="start" x="329.01" y="-42.4" font-family="Times-12" font-weight="bold" font-size="14.00">Legend</text>
<polygon fill="#ffffb3" stroke="transparent" points="116,-10 116,-30 136,-30 136,-10 116,-10"/>
<text text-anchor="start" x="139.63" y="-15.4" font-family="Times-12" font-size="14.00"> &#160;Declarations</text>
<polygon fill="#8dd3c7" stroke="transparent" points="229,-10 229,-30 249,-30 249,-10 229,-10"/>
<text text-anchor="start" x="252.73" y="-15.4" font-family="Times-12" font-size="14.00"> &#160;Module</text>
<polygon fill="#80b1d3" stroke="transparent" points="315,-10 315,-30 335,-30 335,-10 315,-10"/>
<text text-anchor="start" x="338.78" y="-15.4" font-family="Times-12" font-size="14.00"> &#160;Bootstrap</text>
<polygon fill="#fdb462" stroke="transparent" points="412,-10 412,-30 432,-30 432,-10 412,-10"/>
<text text-anchor="start" x="435.67" y="-15.4" font-family="Times-12" font-size="14.00"> &#160;Providers</text>
<polygon fill="#fb8072" stroke="transparent" points="508,-10 508,-30 528,-30 528,-10 508,-10"/>
<text text-anchor="start" x="531.73" y="-15.4" font-family="Times-12" font-size="14.00"> &#160;Exports</text>
<g id="clust1" class="cluster">
<title>cluster_CartItemModule</title>
<polygon fill="none" stroke="black" stroke-dasharray="1,5" points="8,-70 8,-195 692,-195 692,-70 8,-70"/>
</g>
<g id="clust6" class="cluster">
<title>cluster_CartItemModule_providers</title>
<polygon fill="none" stroke="black" points="326,-78 326,-130 684,-130 684,-78 326,-78"/>
</g>
<g id="clust3" class="cluster">
<title>cluster_CartItemModule_imports</title>
<polygon fill="none" stroke="black" points="16,-78 16,-130 318,-130 318,-78 16,-78"/>
</g>
<!-- CommonModule -->
<g id="node1" class="node">
<title>CommonModule</title>
<polygon fill="#8dd3c7" stroke="black" points="309.67,-122 306.67,-126 285.67,-126 282.67,-122 198.33,-122 198.33,-86 309.67,-86 309.67,-122"/>
<text text-anchor="middle" x="254" y="-99.8" font-family="Times,serif" font-size="14.00">CommonModule</text>
</g>
<!-- CartItemModule -->
<g id="node3" class="node">
<title>CartItemModule</title>
<polygon fill="#8dd3c7" stroke="black" points="385.81,-187 382.81,-191 361.81,-191 358.81,-187 276.19,-187 276.19,-151 385.81,-151 385.81,-187"/>
<text text-anchor="middle" x="331" y="-164.8" font-family="Times,serif" font-size="14.00">CartItemModule</text>
</g>
<!-- CommonModule&#45;&gt;CartItemModule -->
<g id="edge1" class="edge">
<title>CommonModule&#45;&gt;CartItemModule</title>
<path fill="none" stroke="black" d="M293.09,-122.11C293.09,-122.11 293.09,-140.99 293.09,-140.99"/>
<polygon fill="black" stroke="black" points="289.59,-140.99 293.09,-150.99 296.59,-140.99 289.59,-140.99"/>
</g>
<!-- ShoppingSessionModule -->
<g id="node2" class="node">
<title>ShoppingSessionModule</title>
<polygon fill="#8dd3c7" stroke="black" points="180,-122 177,-126 156,-126 153,-122 24,-122 24,-86 180,-86 180,-122"/>
<text text-anchor="middle" x="102" y="-99.8" font-family="Times,serif" font-size="14.00">ShoppingSessionModule</text>
</g>
<!-- ShoppingSessionModule&#45;&gt;CartItemModule -->
<g id="edge2" class="edge">
<title>ShoppingSessionModule&#45;&gt;CartItemModule</title>
<path fill="none" stroke="black" d="M102,-122.11C102,-141.34 102,-169 102,-169 102,-169 266.15,-169 266.15,-169"/>
<polygon fill="black" stroke="black" points="266.15,-172.5 276.15,-169 266.15,-165.5 266.15,-172.5"/>
</g>
<!-- CartItemRepository -->
<g id="node4" class="node">
<title>CartItemRepository</title>
<ellipse fill="#fdb462" stroke="black" cx="588" cy="-104" rx="87.98" ry="18"/>
<text text-anchor="middle" x="588" y="-99.8" font-family="Times,serif" font-size="14.00">CartItemRepository</text>
</g>
<!-- CartItemRepository&#45;&gt;CartItemModule -->
<g id="edge3" class="edge">
<title>CartItemRepository&#45;&gt;CartItemModule</title>
<path fill="none" stroke="black" d="M588,-122.11C588,-141.34 588,-169 588,-169 588,-169 395.82,-169 395.82,-169"/>
<polygon fill="black" stroke="black" points="395.82,-165.5 385.82,-169 395.82,-172.5 395.82,-165.5"/>
</g>
<!-- CartItemService -->
<g id="node5" class="node">
<title>CartItemService</title>
<ellipse fill="#fdb462" stroke="black" cx="408" cy="-104" rx="74.13" ry="18"/>
<text text-anchor="middle" x="408" y="-99.8" font-family="Times,serif" font-size="14.00">CartItemService</text>
</g>
<!-- CartItemService&#45;&gt;CartItemModule -->
<g id="edge4" class="edge">
<title>CartItemService&#45;&gt;CartItemModule</title>
<path fill="none" stroke="black" d="M359.67,-117.78C359.67,-117.78 359.67,-140.55 359.67,-140.55"/>
<polygon fill="black" stroke="black" points="356.17,-140.55 359.67,-150.55 363.17,-140.55 356.17,-140.55"/>
</g>
</g>
</svg>
