<?xml version="1.0" encoding="UTF-8" standalone="no"?>
<!DOCTYPE svg PUBLIC "-//W3C//DTD SVG 1.1//EN"
 "http://www.w3.org/Graphics/SVG/1.1/DTD/svg11.dtd">
<!-- Generated by graphviz version 2.47.0 (20210316.0004)
 -->
<!-- Title: dependencies Pages: 1 -->
<svg width="877pt" height="284pt"
 viewBox="0.00 0.00 877.00 284.00" xmlns="http://www.w3.org/2000/svg" xmlns:xlink="http://www.w3.org/1999/xlink">
<g id="graph0" class="graph" transform="scale(1 1) rotate(0) translate(4 280)">
<title>dependencies</title>
<polygon fill="white" stroke="transparent" points="-4,4 -4,-280 873,-280 873,4 -4,4"/>
<text text-anchor="start" x="413.51" y="-42.4" font-family="Times-12" font-weight="bold" font-size="14.00">Legend</text>
<polygon fill="#ffffb3" stroke="transparent" points="200.5,-10 200.5,-30 220.5,-30 220.5,-10 200.5,-10"/>
<text text-anchor="start" x="224.13" y="-15.4" font-family="Times-12" font-size="14.00"> &#160;Declarations</text>
<polygon fill="#8dd3c7" stroke="transparent" points="313.5,-10 313.5,-30 333.5,-30 333.5,-10 313.5,-10"/>
<text text-anchor="start" x="337.23" y="-15.4" font-family="Times-12" font-size="14.00"> &#160;Module</text>
<polygon fill="#80b1d3" stroke="transparent" points="399.5,-10 399.5,-30 419.5,-30 419.5,-10 399.5,-10"/>
<text text-anchor="start" x="423.28" y="-15.4" font-family="Times-12" font-size="14.00"> &#160;Bootstrap</text>
<polygon fill="#fdb462" stroke="transparent" points="496.5,-10 496.5,-30 516.5,-30 516.5,-10 496.5,-10"/>
<text text-anchor="start" x="520.17" y="-15.4" font-family="Times-12" font-size="14.00"> &#160;Providers</text>
<polygon fill="#fb8072" stroke="transparent" points="592.5,-10 592.5,-30 612.5,-30 612.5,-10 592.5,-10"/>
<text text-anchor="start" x="616.23" y="-15.4" font-family="Times-12" font-size="14.00"> &#160;Exports</text>
<g id="clust1" class="cluster">
<title>cluster_ShoppingSessionModule</title>
<polygon fill="none" stroke="black" stroke-dasharray="1,5" points="8,-70 8,-268 861,-268 861,-70 8,-70"/>
</g>
<g id="clust6" class="cluster">
<title>cluster_ShoppingSessionModule_providers</title>
<polygon fill="none" stroke="black" points="366,-78 366,-130 853,-130 853,-78 366,-78"/>
</g>
<g id="clust3" class="cluster">
<title>cluster_ShoppingSessionModule_imports</title>
<polygon fill="none" stroke="black" points="16,-78 16,-130 358,-130 358,-78 16,-78"/>
</g>
<g id="clust4" class="cluster">
<title>cluster_ShoppingSessionModule_exports</title>
<polygon fill="none" stroke="black" points="207,-208 207,-260 381,-260 381,-208 207,-208"/>
</g>
<!-- CommonModule -->
<g id="node1" class="node">
<title>CommonModule</title>
<polygon fill="#8dd3c7" stroke="black" points="349.67,-122 346.67,-126 325.67,-126 322.67,-122 238.33,-122 238.33,-86 349.67,-86 349.67,-122"/>
<text text-anchor="middle" x="294" y="-99.8" font-family="Times,serif" font-size="14.00">CommonModule</text>
</g>
<!-- ShoppingSessionModule -->
<g id="node4" class="node">
<title>ShoppingSessionModule</title>
<polygon fill="#8dd3c7" stroke="black" points="372,-187 369,-191 348,-191 345,-187 216,-187 216,-151 372,-151 372,-187"/>
<text text-anchor="middle" x="294" y="-164.8" font-family="Times,serif" font-size="14.00">ShoppingSessionModule</text>
</g>
<!-- CommonModule&#45;&gt;ShoppingSessionModule -->
<g id="edge1" class="edge">
<title>CommonModule&#45;&gt;ShoppingSessionModule</title>
<path fill="none" stroke="black" d="M294,-122.11C294,-122.11 294,-140.99 294,-140.99"/>
<polygon fill="black" stroke="black" points="290.5,-140.99 294,-150.99 297.5,-140.99 290.5,-140.99"/>
</g>
<!-- OrderModule -->
<g id="node2" class="node">
<title>OrderModule</title>
<polygon fill="#8dd3c7" stroke="black" points="220.19,-122 217.19,-126 196.19,-126 193.19,-122 127.81,-122 127.81,-86 220.19,-86 220.19,-122"/>
<text text-anchor="middle" x="174" y="-99.8" font-family="Times,serif" font-size="14.00">OrderModule</text>
</g>
<!-- OrderModule&#45;&gt;ShoppingSessionModule -->
<g id="edge2" class="edge">
<title>OrderModule&#45;&gt;ShoppingSessionModule</title>
<path fill="none" stroke="black" d="M220.52,-104C225.69,-104 229.13,-104 229.13,-104 229.13,-104 229.13,-140.89 229.13,-140.89"/>
<polygon fill="black" stroke="black" points="225.63,-140.89 229.13,-150.89 232.63,-140.89 225.63,-140.89"/>
</g>
<!-- UserModule -->
<g id="node3" class="node">
<title>UserModule</title>
<polygon fill="#8dd3c7" stroke="black" points="109.98,-122 106.98,-126 85.98,-126 82.98,-122 24.02,-122 24.02,-86 109.98,-86 109.98,-122"/>
<text text-anchor="middle" x="67" y="-99.8" font-family="Times,serif" font-size="14.00">UserModule</text>
</g>
<!-- UserModule&#45;&gt;ShoppingSessionModule -->
<g id="edge3" class="edge">
<title>UserModule&#45;&gt;ShoppingSessionModule</title>
<path fill="none" stroke="black" d="M67,-122.11C67,-141.34 67,-169 67,-169 67,-169 205.88,-169 205.88,-169"/>
<polygon fill="black" stroke="black" points="205.88,-172.5 215.88,-169 205.88,-165.5 205.88,-172.5"/>
</g>
<!-- ShoppingSessionService  -->
<g id="node5" class="node">
<title>ShoppingSessionService </title>
<polygon fill="#fb8072" stroke="black" points="372.93,-252 215.07,-252 215.07,-216 372.93,-216 372.93,-252"/>
<text text-anchor="middle" x="294" y="-229.8" font-family="Times,serif" font-size="14.00">ShoppingSessionService </text>
</g>
<!-- ShoppingSessionModule&#45;&gt;ShoppingSessionService  -->
<g id="edge4" class="edge">
<title>ShoppingSessionModule&#45;&gt;ShoppingSessionService </title>
<path fill="none" stroke="black" stroke-dasharray="5,2" d="M294,-187.11C294,-187.11 294,-205.99 294,-205.99"/>
<polygon fill="black" stroke="black" points="290.5,-205.99 294,-215.99 297.5,-205.99 290.5,-205.99"/>
</g>
<!-- ShoppingSessionRepository -->
<g id="node6" class="node">
<title>ShoppingSessionRepository</title>
<ellipse fill="#fdb462" stroke="black" cx="725" cy="-104" rx="119.89" ry="18"/>
<text text-anchor="middle" x="725" y="-99.8" font-family="Times,serif" font-size="14.00">ShoppingSessionRepository</text>
</g>
<!-- ShoppingSessionRepository&#45;&gt;ShoppingSessionModule -->
<g id="edge5" class="edge">
<title>ShoppingSessionRepository&#45;&gt;ShoppingSessionModule</title>
<path fill="none" stroke="black" d="M725,-122.11C725,-141.34 725,-169 725,-169 725,-169 382.05,-169 382.05,-169"/>
<polygon fill="black" stroke="black" points="382.05,-165.5 372.05,-169 382.05,-172.5 382.05,-165.5"/>
</g>
<!-- ShoppingSessionService -->
<g id="node7" class="node">
<title>ShoppingSessionService</title>
<ellipse fill="#fdb462" stroke="black" cx="481" cy="-104" rx="106.54" ry="18"/>
<text text-anchor="middle" x="481" y="-99.8" font-family="Times,serif" font-size="14.00">ShoppingSessionService</text>
</g>
<!-- ShoppingSessionService&#45;&gt;ShoppingSessionModule -->
<g id="edge6" class="edge">
<title>ShoppingSessionService&#45;&gt;ShoppingSessionModule</title>
<path fill="none" stroke="black" d="M374.23,-104C366.06,-104 360.92,-104 360.92,-104 360.92,-104 360.92,-140.89 360.92,-140.89"/>
<polygon fill="black" stroke="black" points="357.42,-140.89 360.92,-150.89 364.42,-140.89 357.42,-140.89"/>
</g>
</g>
</svg>
