<?xml version="1.0" encoding="UTF-8" standalone="no"?>
<!DOCTYPE svg PUBLIC "-//W3C//DTD SVG 1.1//EN"
 "http://www.w3.org/Graphics/SVG/1.1/DTD/svg11.dtd">
<!-- Generated by graphviz version 2.47.0 (20210316.0004)
 -->
<!-- Title: dependencies Pages: 1 -->
<svg width="504pt" height="211pt"
 viewBox="0.00 0.00 504.00 211.00" xmlns="http://www.w3.org/2000/svg" xmlns:xlink="http://www.w3.org/1999/xlink">
<g id="graph0" class="graph" transform="scale(1 1) rotate(0) translate(4 207)">
<title>dependencies</title>
<polygon fill="white" stroke="transparent" points="-4,4 -4,-207 500,-207 500,4 -4,4"/>
<text text-anchor="start" x="227.01" y="-42.4" font-family="Times-12" font-weight="bold" font-size="14.00">Legend</text>
<polygon fill="#ffffb3" stroke="transparent" points="14,-10 14,-30 34,-30 34,-10 14,-10"/>
<text text-anchor="start" x="37.63" y="-15.4" font-family="Times-12" font-size="14.00"> &#160;Declarations</text>
<polygon fill="#8dd3c7" stroke="transparent" points="127,-10 127,-30 147,-30 147,-10 127,-10"/>
<text text-anchor="start" x="150.73" y="-15.4" font-family="Times-12" font-size="14.00"> &#160;Module</text>
<polygon fill="#80b1d3" stroke="transparent" points="213,-10 213,-30 233,-30 233,-10 213,-10"/>
<text text-anchor="start" x="236.78" y="-15.4" font-family="Times-12" font-size="14.00"> &#160;Bootstrap</text>
<polygon fill="#fdb462" stroke="transparent" points="310,-10 310,-30 330,-30 330,-10 310,-10"/>
<text text-anchor="start" x="333.67" y="-15.4" font-family="Times-12" font-size="14.00"> &#160;Providers</text>
<polygon fill="#fb8072" stroke="transparent" points="406,-10 406,-30 426,-30 426,-10 406,-10"/>
<text text-anchor="start" x="429.73" y="-15.4" font-family="Times-12" font-size="14.00"> &#160;Exports</text>
<g id="clust1" class="cluster">
<title>cluster_OrderModule</title>
<polygon fill="none" stroke="black" stroke-dasharray="1,5" points="16.5,-70 16.5,-195 479.5,-195 479.5,-70 16.5,-70"/>
</g>
<g id="clust3" class="cluster">
<title>cluster_OrderModule_imports</title>
<polygon fill="none" stroke="black" points="343.5,-78 343.5,-130 471.5,-130 471.5,-78 343.5,-78"/>
</g>
<g id="clust6" class="cluster">
<title>cluster_OrderModule_providers</title>
<polygon fill="none" stroke="black" points="24.5,-78 24.5,-130 335.5,-130 335.5,-78 24.5,-78"/>
</g>
<!-- CommonModule -->
<g id="node1" class="node">
<title>CommonModule</title>
<polygon fill="#8dd3c7" stroke="black" points="463.17,-122 460.17,-126 439.17,-126 436.17,-122 351.83,-122 351.83,-86 463.17,-86 463.17,-122"/>
<text text-anchor="middle" x="407.5" y="-99.8" font-family="Times,serif" font-size="14.00">CommonModule</text>
</g>
<!-- OrderModule -->
<g id="node2" class="node">
<title>OrderModule</title>
<polygon fill="#8dd3c7" stroke="black" points="297.69,-187 294.69,-191 273.69,-191 270.69,-187 205.31,-187 205.31,-151 297.69,-151 297.69,-187"/>
<text text-anchor="middle" x="251.5" y="-164.8" font-family="Times,serif" font-size="14.00">OrderModule</text>
</g>
<!-- CommonModule&#45;&gt;OrderModule -->
<g id="edge1" class="edge">
<title>CommonModule&#45;&gt;OrderModule</title>
<path fill="none" stroke="black" d="M407.5,-122.11C407.5,-141.34 407.5,-169 407.5,-169 407.5,-169 307.88,-169 307.88,-169"/>
<polygon fill="black" stroke="black" points="307.88,-165.5 297.88,-169 307.88,-172.5 307.88,-165.5"/>
</g>
<!-- OrderRepository -->
<g id="node3" class="node">
<title>OrderRepository</title>
<ellipse fill="#fdb462" stroke="black" cx="251.5" cy="-104" rx="75.86" ry="18"/>
<text text-anchor="middle" x="251.5" y="-99.8" font-family="Times,serif" font-size="14.00">OrderRepository</text>
</g>
<!-- OrderRepository&#45;&gt;OrderModule -->
<g id="edge2" class="edge">
<title>OrderRepository&#45;&gt;OrderModule</title>
<path fill="none" stroke="black" d="M251.5,-122.11C251.5,-122.11 251.5,-140.99 251.5,-140.99"/>
<polygon fill="black" stroke="black" points="248,-140.99 251.5,-150.99 255,-140.99 248,-140.99"/>
</g>
<!-- OrderService -->
<g id="node4" class="node">
<title>OrderService</title>
<ellipse fill="#fdb462" stroke="black" cx="95.5" cy="-104" rx="62.52" ry="18"/>
<text text-anchor="middle" x="95.5" y="-99.8" font-family="Times,serif" font-size="14.00">OrderService</text>
</g>
<!-- OrderService&#45;&gt;OrderModule -->
<g id="edge3" class="edge">
<title>OrderService&#45;&gt;OrderModule</title>
<path fill="none" stroke="black" d="M95.5,-122.11C95.5,-141.34 95.5,-169 95.5,-169 95.5,-169 195.12,-169 195.12,-169"/>
<polygon fill="black" stroke="black" points="195.12,-172.5 205.12,-169 195.12,-165.5 195.12,-172.5"/>
</g>
</g>
</svg>
