<?xml version="1.0" encoding="UTF-8" standalone="no"?>
<!DOCTYPE svg PUBLIC "-//W3C//DTD SVG 1.1//EN"
 "http://www.w3.org/Graphics/SVG/1.1/DTD/svg11.dtd">
<!-- Generated by graphviz version 2.47.0 (20210316.0004)
 -->
<!-- Title: dependencies Pages: 1 -->
<svg width="805pt" height="211pt"
 viewBox="0.00 0.00 805.00 211.00" xmlns="http://www.w3.org/2000/svg" xmlns:xlink="http://www.w3.org/1999/xlink">
<g id="graph0" class="graph" transform="scale(1 1) rotate(0) translate(4 207)">
<title>dependencies</title>
<polygon fill="white" stroke="transparent" points="-4,4 -4,-207 801,-207 801,4 -4,4"/>
<text text-anchor="start" x="377.51" y="-42.4" font-family="Times-12" font-weight="bold" font-size="14.00">Legend</text>
<polygon fill="#ffffb3" stroke="transparent" points="164.5,-10 164.5,-30 184.5,-30 184.5,-10 164.5,-10"/>
<text text-anchor="start" x="188.13" y="-15.4" font-family="Times-12" font-size="14.00"> &#160;Declarations</text>
<polygon fill="#8dd3c7" stroke="transparent" points="277.5,-10 277.5,-30 297.5,-30 297.5,-10 277.5,-10"/>
<text text-anchor="start" x="301.23" y="-15.4" font-family="Times-12" font-size="14.00"> &#160;Module</text>
<polygon fill="#80b1d3" stroke="transparent" points="363.5,-10 363.5,-30 383.5,-30 383.5,-10 363.5,-10"/>
<text text-anchor="start" x="387.28" y="-15.4" font-family="Times-12" font-size="14.00"> &#160;Bootstrap</text>
<polygon fill="#fdb462" stroke="transparent" points="460.5,-10 460.5,-30 480.5,-30 480.5,-10 460.5,-10"/>
<text text-anchor="start" x="484.17" y="-15.4" font-family="Times-12" font-size="14.00"> &#160;Providers</text>
<polygon fill="#fb8072" stroke="transparent" points="556.5,-10 556.5,-30 576.5,-30 576.5,-10 556.5,-10"/>
<text text-anchor="start" x="580.23" y="-15.4" font-family="Times-12" font-size="14.00"> &#160;Exports</text>
<g id="clust1" class="cluster">
<title>cluster_AppModule</title>
<polygon fill="none" stroke="black" stroke-dasharray="1,5" points="8,-70 8,-195 789,-195 789,-70 8,-70"/>
</g>
<g id="clust3" class="cluster">
<title>cluster_AppModule_imports</title>
<polygon fill="none" stroke="black" points="16,-78 16,-130 781,-130 781,-78 16,-78"/>
</g>
<!-- CartItemModule -->
<g id="node1" class="node">
<title>CartItemModule</title>
<polygon fill="#8dd3c7" stroke="black" points="772.81,-122 769.81,-126 748.81,-126 745.81,-122 663.19,-122 663.19,-86 772.81,-86 772.81,-122"/>
<text text-anchor="middle" x="718" y="-99.8" font-family="Times,serif" font-size="14.00">CartItemModule</text>
</g>
<!-- AppModule -->
<g id="node7" class="node">
<title>AppModule</title>
<polygon fill="#8dd3c7" stroke="black" points="453.66,-187 450.66,-191 429.66,-191 426.66,-187 370.34,-187 370.34,-151 453.66,-151 453.66,-187"/>
<text text-anchor="middle" x="412" y="-164.8" font-family="Times,serif" font-size="14.00">AppModule</text>
</g>
<!-- CartItemModule&#45;&gt;AppModule -->
<g id="edge1" class="edge">
<title>CartItemModule&#45;&gt;AppModule</title>
<path fill="none" stroke="black" d="M718,-122.28C718,-143.32 718,-175 718,-175 718,-175 463.91,-175 463.91,-175"/>
<polygon fill="black" stroke="black" points="463.91,-171.5 453.91,-175 463.91,-178.5 463.91,-171.5"/>
</g>
<!-- CommonModule -->
<g id="node2" class="node">
<title>CommonModule</title>
<polygon fill="#8dd3c7" stroke="black" points="645.67,-122 642.67,-126 621.67,-126 618.67,-122 534.33,-122 534.33,-86 645.67,-86 645.67,-122"/>
<text text-anchor="middle" x="590" y="-99.8" font-family="Times,serif" font-size="14.00">CommonModule</text>
</g>
<!-- CommonModule&#45;&gt;AppModule -->
<g id="edge2" class="edge">
<title>CommonModule&#45;&gt;AppModule</title>
<path fill="none" stroke="black" d="M590,-122.02C590,-139.37 590,-163 590,-163 590,-163 463.73,-163 463.73,-163"/>
<polygon fill="black" stroke="black" points="463.73,-159.5 453.73,-163 463.73,-166.5 463.73,-159.5"/>
</g>
<!-- OrderModule -->
<g id="node3" class="node">
<title>OrderModule</title>
<polygon fill="#8dd3c7" stroke="black" points="516.19,-122 513.19,-126 492.19,-126 489.19,-122 423.81,-122 423.81,-86 516.19,-86 516.19,-122"/>
<text text-anchor="middle" x="470" y="-99.8" font-family="Times,serif" font-size="14.00">OrderModule</text>
</g>
<!-- OrderModule&#45;&gt;AppModule -->
<g id="edge3" class="edge">
<title>OrderModule&#45;&gt;AppModule</title>
<path fill="none" stroke="black" d="M438.87,-122.11C438.87,-122.11 438.87,-140.99 438.87,-140.99"/>
<polygon fill="black" stroke="black" points="435.37,-140.99 438.87,-150.99 442.37,-140.99 435.37,-140.99"/>
</g>
<!-- ProductModule -->
<g id="node4" class="node">
<title>ProductModule</title>
<polygon fill="#8dd3c7" stroke="black" points="405.6,-122 402.6,-126 381.6,-126 378.6,-122 302.4,-122 302.4,-86 405.6,-86 405.6,-122"/>
<text text-anchor="middle" x="354" y="-99.8" font-family="Times,serif" font-size="14.00">ProductModule</text>
</g>
<!-- ProductModule&#45;&gt;AppModule -->
<g id="edge4" class="edge">
<title>ProductModule&#45;&gt;AppModule</title>
<path fill="none" stroke="black" d="M387.86,-122.11C387.86,-122.11 387.86,-140.99 387.86,-140.99"/>
<polygon fill="black" stroke="black" points="384.36,-140.99 387.86,-150.99 391.36,-140.99 384.36,-140.99"/>
</g>
<!-- ShoppingSessionModule -->
<g id="node5" class="node">
<title>ShoppingSessionModule</title>
<polygon fill="#8dd3c7" stroke="black" points="284,-122 281,-126 260,-126 257,-122 128,-122 128,-86 284,-86 284,-122"/>
<text text-anchor="middle" x="206" y="-99.8" font-family="Times,serif" font-size="14.00">ShoppingSessionModule</text>
</g>
<!-- ShoppingSessionModule&#45;&gt;AppModule -->
<g id="edge5" class="edge">
<title>ShoppingSessionModule&#45;&gt;AppModule</title>
<path fill="none" stroke="black" d="M206,-122.02C206,-139.37 206,-163 206,-163 206,-163 360.31,-163 360.31,-163"/>
<polygon fill="black" stroke="black" points="360.31,-166.5 370.31,-163 360.31,-159.5 360.31,-166.5"/>
</g>
<!-- UserModule -->
<g id="node6" class="node">
<title>UserModule</title>
<polygon fill="#8dd3c7" stroke="black" points="109.98,-122 106.98,-126 85.98,-126 82.98,-122 24.02,-122 24.02,-86 109.98,-86 109.98,-122"/>
<text text-anchor="middle" x="67" y="-99.8" font-family="Times,serif" font-size="14.00">UserModule</text>
</g>
<!-- UserModule&#45;&gt;AppModule -->
<g id="edge6" class="edge">
<title>UserModule&#45;&gt;AppModule</title>
<path fill="none" stroke="black" d="M67,-122.28C67,-143.32 67,-175 67,-175 67,-175 360.04,-175 360.04,-175"/>
<polygon fill="black" stroke="black" points="360.04,-178.5 370.04,-175 360.04,-171.5 360.04,-178.5"/>
</g>
</g>
</svg>
