<?xml version="1.0" encoding="UTF-8" standalone="no"?>
<!DOCTYPE svg PUBLIC "-//W3C//DTD SVG 1.1//EN"
 "http://www.w3.org/Graphics/SVG/1.1/DTD/svg11.dtd">
<!-- Generated by graphviz version 2.47.0 (20210316.0004)
 -->
<!-- Title: dependencies Pages: 1 -->
<svg width="2876pt" height="428pt"
 viewBox="0.00 0.00 2876.00 428.00" xmlns="http://www.w3.org/2000/svg" xmlns:xlink="http://www.w3.org/1999/xlink">
<g id="graph0" class="graph" transform="scale(1 1) rotate(0) translate(4 424)">
<title>dependencies</title>
<polygon fill="white" stroke="transparent" points="-4,4 -4,-424 2872,-424 2872,4 -4,4"/>
<text text-anchor="start" x="1413.01" y="-42.4" font-family="Times-12" font-weight="bold" font-size="14.00">Legend</text>
<polygon fill="#ffffb3" stroke="transparent" points="1200,-10 1200,-30 1220,-30 1220,-10 1200,-10"/>
<text text-anchor="start" x="1223.63" y="-15.4" font-family="Times-12" font-size="14.00"> &#160;Declarations</text>
<polygon fill="#8dd3c7" stroke="transparent" points="1313,-10 1313,-30 1333,-30 1333,-10 1313,-10"/>
<text text-anchor="start" x="1336.73" y="-15.4" font-family="Times-12" font-size="14.00"> &#160;Module</text>
<polygon fill="#80b1d3" stroke="transparent" points="1399,-10 1399,-30 1419,-30 1419,-10 1399,-10"/>
<text text-anchor="start" x="1422.78" y="-15.4" font-family="Times-12" font-size="14.00"> &#160;Bootstrap</text>
<polygon fill="#fdb462" stroke="transparent" points="1496,-10 1496,-30 1516,-30 1516,-10 1496,-10"/>
<text text-anchor="start" x="1519.67" y="-15.4" font-family="Times-12" font-size="14.00"> &#160;Providers</text>
<polygon fill="#fb8072" stroke="transparent" points="1592,-10 1592,-30 1612,-30 1612,-10 1592,-10"/>
<text text-anchor="start" x="1615.73" y="-15.4" font-family="Times-12" font-size="14.00"> &#160;Exports</text>
<g id="clust1" class="cluster">
<title>cluster_AppModule</title>
<polygon fill="none" stroke="black" stroke-dasharray="1,5" points="1137,-70 1137,-412 1539,-412 1539,-70 1137,-70"/>
</g>
<g id="clust3" class="cluster">
<title>cluster_AppModule_imports</title>
<polygon fill="none" stroke="black" points="1157,-78 1157,-347 1531,-347 1531,-78 1157,-78"/>
</g>
<g id="clust7" class="cluster">
<title>cluster_CartItemModule</title>
<polygon fill="none" stroke="black" stroke-dasharray="1,5" points="1547,-222 1547,-290 1921,-290 1921,-222 1547,-222"/>
</g>
<g id="clust12" class="cluster">
<title>cluster_CartItemModule_providers</title>
<polygon fill="none" stroke="black" points="1555,-230 1555,-282 1913,-282 1913,-230 1555,-230"/>
</g>
<g id="clust13" class="cluster">
<title>cluster_CommonModule</title>
<polygon fill="none" stroke="black" stroke-dasharray="1,5" points="1547,-146 1547,-214 2167,-214 2167,-146 1547,-146"/>
</g>
<g id="clust16" class="cluster">
<title>cluster_CommonModule_exports</title>
<polygon fill="none" stroke="black" points="1899,-154 1899,-206 2159,-206 2159,-154 1899,-154"/>
</g>
<g id="clust18" class="cluster">
<title>cluster_CommonModule_providers</title>
<polygon fill="none" stroke="black" points="1555,-154 1555,-206 1891,-206 1891,-154 1555,-154"/>
</g>
<g id="clust19" class="cluster">
<title>cluster_OrderModule</title>
<polygon fill="none" stroke="black" stroke-dasharray="1,5" points="438,-70 438,-138 765,-138 765,-70 438,-70"/>
</g>
<g id="clust24" class="cluster">
<title>cluster_OrderModule_providers</title>
<polygon fill="none" stroke="black" points="446,-78 446,-130 757,-130 757,-78 446,-78"/>
</g>
<g id="clust25" class="cluster">
<title>cluster_ProductModule</title>
<polygon fill="none" stroke="black" stroke-dasharray="1,5" points="773,-70 773,-138 1129,-138 1129,-70 773,-70"/>
</g>
<g id="clust30" class="cluster">
<title>cluster_ProductModule_providers</title>
<polygon fill="none" stroke="black" points="781,-78 781,-130 1121,-130 1121,-78 781,-78"/>
</g>
<g id="clust31" class="cluster">
<title>cluster_ShoppingSessionModule</title>
<polygon fill="none" stroke="black" stroke-dasharray="1,5" points="2175,-146 2175,-214 2860,-214 2860,-146 2175,-146"/>
</g>
<g id="clust34" class="cluster">
<title>cluster_ShoppingSessionModule_exports</title>
<polygon fill="none" stroke="black" points="2678,-154 2678,-206 2852,-206 2852,-154 2678,-154"/>
</g>
<g id="clust36" class="cluster">
<title>cluster_ShoppingSessionModule_providers</title>
<polygon fill="none" stroke="black" points="2183,-154 2183,-206 2670,-206 2670,-154 2183,-154"/>
</g>
<g id="clust37" class="cluster">
<title>cluster_UserModule</title>
<polygon fill="none" stroke="black" stroke-dasharray="1,5" points="8,-70 8,-138 430,-138 430,-70 8,-70"/>
</g>
<g id="clust40" class="cluster">
<title>cluster_UserModule_exports</title>
<polygon fill="none" stroke="black" points="318,-78 318,-130 422,-130 422,-78 318,-78"/>
</g>
<g id="clust42" class="cluster">
<title>cluster_UserModule_providers</title>
<polygon fill="none" stroke="black" points="16,-78 16,-130 310,-130 310,-78 16,-78"/>
</g>
<!-- CartItemModule -->
<g id="node1" class="node">
<title>CartItemModule</title>
<polygon fill="#8dd3c7" stroke="black" points="1499.81,-339 1496.81,-343 1475.81,-343 1472.81,-339 1390.19,-339 1390.19,-303 1499.81,-303 1499.81,-339"/>
<text text-anchor="middle" x="1445" y="-316.8" font-family="Times,serif" font-size="14.00">CartItemModule</text>
</g>
<!-- AppModule -->
<g id="node7" class="node">
<title>AppModule</title>
<polygon fill="#8dd3c7" stroke="black" points="1359.66,-404 1356.66,-408 1335.66,-408 1332.66,-404 1276.34,-404 1276.34,-368 1359.66,-368 1359.66,-404"/>
<text text-anchor="middle" x="1318" y="-381.8" font-family="Times,serif" font-size="14.00">AppModule</text>
</g>
<!-- CartItemModule&#45;&gt;AppModule -->
<g id="edge1" class="edge">
<title>CartItemModule&#45;&gt;AppModule</title>
<path fill="none" stroke="black" d="M1390.17,-321C1366.05,-321 1343.1,-321 1343.1,-321 1343.1,-321 1343.1,-357.89 1343.1,-357.89"/>
<polygon fill="black" stroke="black" points="1339.6,-357.89 1343.1,-367.89 1346.6,-357.89 1339.6,-357.89"/>
</g>
<!-- CommonModule -->
<g id="node2" class="node">
<title>CommonModule</title>
<polygon fill="#8dd3c7" stroke="black" points="1522.67,-122 1519.67,-126 1498.67,-126 1495.67,-122 1411.33,-122 1411.33,-86 1522.67,-86 1522.67,-122"/>
<text text-anchor="middle" x="1467" y="-99.8" font-family="Times,serif" font-size="14.00">CommonModule</text>
</g>
<!-- CommonModule&#45;&gt;CartItemModule -->
<g id="edge7" class="edge">
<title>CommonModule&#45;&gt;CartItemModule</title>
<path fill="none" stroke="black" d="M1522.92,-115C1534.28,-115 1542.84,-115 1542.84,-115 1542.84,-115 1542.84,-312 1542.84,-312 1542.84,-312 1509.93,-312 1509.93,-312"/>
<polygon fill="black" stroke="black" points="1509.93,-308.5 1499.93,-312 1509.93,-315.5 1509.93,-308.5"/>
</g>
<!-- OrderModule -->
<g id="node3" class="node">
<title>OrderModule</title>
<polygon fill="#8dd3c7" stroke="black" points="1361.19,-198 1358.19,-202 1337.19,-202 1334.19,-198 1268.81,-198 1268.81,-162 1361.19,-162 1361.19,-198"/>
<text text-anchor="middle" x="1315" y="-175.8" font-family="Times,serif" font-size="14.00">OrderModule</text>
</g>
<!-- CommonModule&#45;&gt;OrderModule -->
<g id="edge15" class="edge">
<title>CommonModule&#45;&gt;OrderModule</title>
<path fill="none" stroke="black" d="M1411.19,-113C1376.34,-113 1338.05,-113 1338.05,-113 1338.05,-113 1338.05,-151.69 1338.05,-151.69"/>
<polygon fill="black" stroke="black" points="1334.55,-151.69 1338.05,-161.69 1341.55,-151.69 1334.55,-151.69"/>
</g>
<!-- ProductModule -->
<g id="node4" class="node">
<title>ProductModule</title>
<polygon fill="#8dd3c7" stroke="black" points="1482.6,-198 1479.6,-202 1458.6,-202 1455.6,-198 1379.4,-198 1379.4,-162 1482.6,-162 1482.6,-198"/>
<text text-anchor="middle" x="1431" y="-175.8" font-family="Times,serif" font-size="14.00">ProductModule</text>
</g>
<!-- CommonModule&#45;&gt;ProductModule -->
<g id="edge18" class="edge">
<title>CommonModule&#45;&gt;ProductModule</title>
<path fill="none" stroke="black" d="M1446.86,-122.01C1446.86,-122.01 1446.86,-151.85 1446.86,-151.85"/>
<polygon fill="black" stroke="black" points="1443.36,-151.85 1446.86,-161.85 1450.36,-151.85 1443.36,-151.85"/>
</g>
<!-- ShoppingSessionModule -->
<g id="node5" class="node">
<title>ShoppingSessionModule</title>
<polygon fill="#8dd3c7" stroke="black" points="1523,-274 1520,-278 1499,-278 1496,-274 1367,-274 1367,-238 1523,-238 1523,-274"/>
<text text-anchor="middle" x="1445" y="-251.8" font-family="Times,serif" font-size="14.00">ShoppingSessionModule</text>
</g>
<!-- CommonModule&#45;&gt;ShoppingSessionModule -->
<g id="edge21" class="edge">
<title>CommonModule&#45;&gt;ShoppingSessionModule</title>
<path fill="none" stroke="black" d="M1499.81,-122.03C1499.81,-122.03 1499.81,-227.99 1499.81,-227.99"/>
<polygon fill="black" stroke="black" points="1496.31,-227.99 1499.81,-237.99 1503.31,-227.99 1496.31,-227.99"/>
</g>
<!-- UserModule -->
<g id="node6" class="node">
<title>UserModule</title>
<polygon fill="#8dd3c7" stroke="black" points="1250.98,-198 1247.98,-202 1226.98,-202 1223.98,-198 1165.02,-198 1165.02,-162 1250.98,-162 1250.98,-198"/>
<text text-anchor="middle" x="1208" y="-175.8" font-family="Times,serif" font-size="14.00">UserModule</text>
</g>
<!-- CommonModule&#45;&gt;UserModule -->
<g id="edge27" class="edge">
<title>CommonModule&#45;&gt;UserModule</title>
<path fill="none" stroke="black" d="M1411.12,-104C1334.98,-104 1208,-104 1208,-104 1208,-104 1208,-151.99 1208,-151.99"/>
<polygon fill="black" stroke="black" points="1204.5,-151.99 1208,-161.99 1211.5,-151.99 1204.5,-151.99"/>
</g>
<!-- CommonModule&#45;&gt;AppModule -->
<g id="edge2" class="edge">
<title>CommonModule&#45;&gt;AppModule</title>
<path fill="none" stroke="black" d="M1488.3,-122.32C1488.3,-153.13 1488.3,-212 1488.3,-212 1488.3,-212 1326.37,-212 1326.37,-212 1326.37,-212 1326.37,-357.71 1326.37,-357.71"/>
<polygon fill="black" stroke="black" points="1322.87,-357.71 1326.37,-367.71 1329.87,-357.71 1322.87,-357.71"/>
</g>
<!-- MonitoringService  -->
<g id="node10" class="node">
<title>MonitoringService </title>
<polygon fill="#fb8072" stroke="black" points="2032.75,-198 1907.25,-198 1907.25,-162 2032.75,-162 2032.75,-198"/>
<text text-anchor="middle" x="1970" y="-175.8" font-family="Times,serif" font-size="14.00">MonitoringService </text>
</g>
<!-- CommonModule&#45;&gt;MonitoringService  -->
<g id="edge11" class="edge">
<title>CommonModule&#45;&gt;MonitoringService </title>
<path fill="none" stroke="black" stroke-dasharray="5,2" d="M1522.75,-101C1653.71,-101 1970,-101 1970,-101 1970,-101 1970,-151.68 1970,-151.68"/>
<polygon fill="black" stroke="black" points="1966.5,-151.68 1970,-161.68 1973.5,-151.68 1966.5,-151.68"/>
</g>
<!-- PrismaService  -->
<g id="node11" class="node">
<title>PrismaService </title>
<polygon fill="#fb8072" stroke="black" points="2151.36,-198 2050.64,-198 2050.64,-162 2151.36,-162 2151.36,-198"/>
<text text-anchor="middle" x="2101" y="-175.8" font-family="Times,serif" font-size="14.00">PrismaService </text>
</g>
<!-- CommonModule&#45;&gt;PrismaService  -->
<g id="edge12" class="edge">
<title>CommonModule&#45;&gt;PrismaService </title>
<path fill="none" stroke="black" stroke-dasharray="5,2" d="M1522.71,-94C1677.42,-94 2101,-94 2101,-94 2101,-94 2101,-151.76 2101,-151.76"/>
<polygon fill="black" stroke="black" points="2097.5,-151.76 2101,-161.76 2104.5,-151.76 2097.5,-151.76"/>
</g>
<!-- OrderModule&#45;&gt;ShoppingSessionModule -->
<g id="edge22" class="edge">
<title>OrderModule&#45;&gt;ShoppingSessionModule</title>
<path fill="none" stroke="black" d="M1361.16,-180C1368.23,-180 1373.23,-180 1373.23,-180 1373.23,-180 1373.23,-227.99 1373.23,-227.99"/>
<polygon fill="black" stroke="black" points="1369.73,-227.99 1373.23,-237.99 1376.73,-227.99 1369.73,-227.99"/>
</g>
<!-- OrderModule&#45;&gt;AppModule -->
<g id="edge3" class="edge">
<title>OrderModule&#45;&gt;AppModule</title>
<path fill="none" stroke="black" d="M1292.9,-198.28C1292.9,-198.28 1292.9,-357.76 1292.9,-357.76"/>
<polygon fill="black" stroke="black" points="1289.4,-357.76 1292.9,-367.76 1296.4,-357.76 1289.4,-357.76"/>
</g>
<!-- ProductModule&#45;&gt;AppModule -->
<g id="edge4" class="edge">
<title>ProductModule&#45;&gt;AppModule</title>
<path fill="none" stroke="black" d="M1431,-198.17C1431,-202.05 1431,-205 1431,-205 1431,-205 1309.63,-205 1309.63,-205 1309.63,-205 1309.63,-357.98 1309.63,-357.98"/>
<polygon fill="black" stroke="black" points="1306.13,-357.98 1309.63,-367.98 1313.13,-357.98 1306.13,-357.98"/>
</g>
<!-- ShoppingSessionModule&#45;&gt;CartItemModule -->
<g id="edge8" class="edge">
<title>ShoppingSessionModule&#45;&gt;CartItemModule</title>
<path fill="none" stroke="black" d="M1445,-274.11C1445,-274.11 1445,-292.99 1445,-292.99"/>
<polygon fill="black" stroke="black" points="1441.5,-292.99 1445,-302.99 1448.5,-292.99 1441.5,-292.99"/>
</g>
<!-- ShoppingSessionModule&#45;&gt;AppModule -->
<g id="edge5" class="edge">
<title>ShoppingSessionModule&#45;&gt;AppModule</title>
<path fill="none" stroke="black" d="M1378.67,-274.08C1378.67,-309.8 1378.67,-386 1378.67,-386 1378.67,-386 1369.81,-386 1369.81,-386"/>
<polygon fill="black" stroke="black" points="1369.81,-382.5 1359.81,-386 1369.81,-389.5 1369.81,-382.5"/>
</g>
<!-- ShoppingSessionService  -->
<g id="node18" class="node">
<title>ShoppingSessionService </title>
<polygon fill="#fb8072" stroke="black" points="2843.93,-198 2686.07,-198 2686.07,-162 2843.93,-162 2843.93,-198"/>
<text text-anchor="middle" x="2765" y="-175.8" font-family="Times,serif" font-size="14.00">ShoppingSessionService </text>
</g>
<!-- ShoppingSessionModule&#45;&gt;ShoppingSessionService  -->
<g id="edge24" class="edge">
<title>ShoppingSessionModule&#45;&gt;ShoppingSessionService </title>
<path fill="none" stroke="black" stroke-dasharray="5,2" d="M1494.06,-237.81C1494.06,-234.46 1494.06,-232 1494.06,-232 1494.06,-232 2765,-232 2765,-232 2765,-232 2765,-208.19 2765,-208.19"/>
<polygon fill="black" stroke="black" points="2768.5,-208.19 2765,-198.19 2761.5,-208.19 2768.5,-208.19"/>
</g>
<!-- UserModule&#45;&gt;ShoppingSessionModule -->
<g id="edge23" class="edge">
<title>UserModule&#45;&gt;ShoppingSessionModule</title>
<path fill="none" stroke="black" d="M1222.33,-198.01C1222.33,-220.49 1222.33,-256 1222.33,-256 1222.33,-256 1356.81,-256 1356.81,-256"/>
<polygon fill="black" stroke="black" points="1356.81,-259.5 1366.81,-256 1356.81,-252.5 1356.81,-259.5"/>
</g>
<!-- UserModule&#45;&gt;AppModule -->
<g id="edge6" class="edge">
<title>UserModule&#45;&gt;AppModule</title>
<path fill="none" stroke="black" d="M1193.67,-198.28C1193.67,-248.7 1193.67,-386 1193.67,-386 1193.67,-386 1266.25,-386 1266.25,-386"/>
<polygon fill="black" stroke="black" points="1266.25,-389.5 1276.25,-386 1266.25,-382.5 1266.25,-389.5"/>
</g>
<!-- UserService  -->
<g id="node21" class="node">
<title>UserService </title>
<polygon fill="#fb8072" stroke="black" points="413.9,-122 326.1,-122 326.1,-86 413.9,-86 413.9,-122"/>
<text text-anchor="middle" x="370" y="-99.8" font-family="Times,serif" font-size="14.00">UserService </text>
</g>
<!-- UserModule&#45;&gt;UserService  -->
<g id="edge28" class="edge">
<title>UserModule&#45;&gt;UserService </title>
<path fill="none" stroke="black" stroke-dasharray="5,2" d="M1165,-171C993.82,-171 370,-171 370,-171 370,-171 370,-132.31 370,-132.31"/>
<polygon fill="black" stroke="black" points="373.5,-132.31 370,-122.31 366.5,-132.31 373.5,-132.31"/>
</g>
<!-- CartItemRepository -->
<g id="node8" class="node">
<title>CartItemRepository</title>
<ellipse fill="#fdb462" stroke="black" cx="1817" cy="-256" rx="87.98" ry="18"/>
<text text-anchor="middle" x="1817" y="-251.8" font-family="Times,serif" font-size="14.00">CartItemRepository</text>
</g>
<!-- CartItemRepository&#45;&gt;CartItemModule -->
<g id="edge9" class="edge">
<title>CartItemRepository&#45;&gt;CartItemModule</title>
<path fill="none" stroke="black" d="M1817,-274.29C1817,-296.21 1817,-330 1817,-330 1817,-330 1509.89,-330 1509.89,-330"/>
<polygon fill="black" stroke="black" points="1509.89,-326.5 1499.89,-330 1509.89,-333.5 1509.89,-326.5"/>
</g>
<!-- CartItemService -->
<g id="node9" class="node">
<title>CartItemService</title>
<ellipse fill="#fdb462" stroke="black" cx="1637" cy="-256" rx="74.13" ry="18"/>
<text text-anchor="middle" x="1637" y="-251.8" font-family="Times,serif" font-size="14.00">CartItemService</text>
</g>
<!-- CartItemService&#45;&gt;CartItemModule -->
<g id="edge10" class="edge">
<title>CartItemService&#45;&gt;CartItemModule</title>
<path fill="none" stroke="black" d="M1637,-274.11C1637,-293.34 1637,-321 1637,-321 1637,-321 1509.76,-321 1509.76,-321"/>
<polygon fill="black" stroke="black" points="1509.76,-317.5 1499.76,-321 1509.76,-324.5 1509.76,-317.5"/>
</g>
<!-- MonitoringService -->
<g id="node12" class="node">
<title>MonitoringService</title>
<ellipse fill="#fdb462" stroke="black" cx="1647" cy="-180" rx="83.97" ry="18"/>
<text text-anchor="middle" x="1647" y="-175.8" font-family="Times,serif" font-size="14.00">MonitoringService</text>
</g>
<!-- MonitoringService&#45;&gt;CommonModule -->
<g id="edge13" class="edge">
<title>MonitoringService&#45;&gt;CommonModule</title>
<path fill="none" stroke="black" d="M1562.88,-180C1537.91,-180 1517.08,-180 1517.08,-180 1517.08,-180 1517.08,-132.01 1517.08,-132.01"/>
<polygon fill="black" stroke="black" points="1520.58,-132.01 1517.08,-122.01 1513.58,-132.01 1520.58,-132.01"/>
</g>
<!-- PrismaService -->
<g id="node13" class="node">
<title>PrismaService</title>
<ellipse fill="#fdb462" stroke="black" cx="1816" cy="-180" rx="66.63" ry="18"/>
<text text-anchor="middle" x="1816" y="-175.8" font-family="Times,serif" font-size="14.00">PrismaService</text>
</g>
<!-- PrismaService&#45;&gt;CommonModule -->
<g id="edge14" class="edge">
<title>PrismaService&#45;&gt;CommonModule</title>
<path fill="none" stroke="black" d="M1816,-161.83C1816,-140.5 1816,-108 1816,-108 1816,-108 1532.69,-108 1532.69,-108"/>
<polygon fill="black" stroke="black" points="1532.69,-104.5 1522.69,-108 1532.69,-111.5 1532.69,-104.5"/>
</g>
<!-- OrderRepository -->
<g id="node14" class="node">
<title>OrderRepository</title>
<ellipse fill="#fdb462" stroke="black" cx="673" cy="-104" rx="75.86" ry="18"/>
<text text-anchor="middle" x="673" y="-99.8" font-family="Times,serif" font-size="14.00">OrderRepository</text>
</g>
<!-- OrderRepository&#45;&gt;OrderModule -->
<g id="edge16" class="edge">
<title>OrderRepository&#45;&gt;OrderModule</title>
<path fill="none" stroke="black" d="M673,-122.11C673,-131.9 673,-142 673,-142 673,-142 1315,-142 1315,-142 1315,-142 1315,-151.89 1315,-151.89"/>
<polygon fill="black" stroke="black" points="1311.5,-151.89 1315,-161.89 1318.5,-151.89 1311.5,-151.89"/>
</g>
<!-- OrderService -->
<g id="node15" class="node">
<title>OrderService</title>
<ellipse fill="#fdb462" stroke="black" cx="517" cy="-104" rx="62.52" ry="18"/>
<text text-anchor="middle" x="517" y="-99.8" font-family="Times,serif" font-size="14.00">OrderService</text>
</g>
<!-- OrderService&#45;&gt;OrderModule -->
<g id="edge17" class="edge">
<title>OrderService&#45;&gt;OrderModule</title>
<path fill="none" stroke="black" d="M517,-122.15C517,-135.74 517,-152 517,-152 517,-152 1291.95,-152 1291.95,-152 1291.95,-152 1291.95,-152.98 1291.95,-152.98"/>
<polygon fill="black" stroke="black" points="1288.45,-151.79 1291.95,-161.79 1295.45,-151.79 1288.45,-151.79"/>
</g>
<!-- ProductRepository -->
<g id="node16" class="node">
<title>ProductRepository</title>
<ellipse fill="#fdb462" stroke="black" cx="1030" cy="-104" rx="83.41" ry="18"/>
<text text-anchor="middle" x="1030" y="-99.8" font-family="Times,serif" font-size="14.00">ProductRepository</text>
</g>
<!-- ProductRepository&#45;&gt;ProductModule -->
<g id="edge19" class="edge">
<title>ProductRepository&#45;&gt;ProductModule</title>
<path fill="none" stroke="black" d="M1102.33,-95C1210.18,-95 1400.59,-95 1400.59,-95 1400.59,-95 1400.59,-151.97 1400.59,-151.97"/>
<polygon fill="black" stroke="black" points="1397.09,-151.97 1400.59,-161.97 1404.09,-151.97 1397.09,-151.97"/>
</g>
<!-- ProductService -->
<g id="node17" class="node">
<title>ProductService</title>
<ellipse fill="#fdb462" stroke="black" cx="859" cy="-104" rx="70.06" ry="18"/>
<text text-anchor="middle" x="859" y="-99.8" font-family="Times,serif" font-size="14.00">ProductService</text>
</g>
<!-- ProductService&#45;&gt;ProductModule -->
<g id="edge20" class="edge">
<title>ProductService&#45;&gt;ProductModule</title>
<path fill="none" stroke="black" d="M859,-122.21C859,-127.55 859,-132 859,-132 859,-132 1390.02,-132 1390.02,-132 1390.02,-132 1390.02,-151.85 1390.02,-151.85"/>
<polygon fill="black" stroke="black" points="1386.52,-151.85 1390.02,-161.85 1393.52,-151.85 1386.52,-151.85"/>
</g>
<!-- ShoppingSessionRepository -->
<g id="node19" class="node">
<title>ShoppingSessionRepository</title>
<ellipse fill="#fdb462" stroke="black" cx="2542" cy="-180" rx="119.89" ry="18"/>
<text text-anchor="middle" x="2542" y="-175.8" font-family="Times,serif" font-size="14.00">ShoppingSessionRepository</text>
</g>
<!-- ShoppingSessionRepository&#45;&gt;ShoppingSessionModule -->
<g id="edge25" class="edge">
<title>ShoppingSessionRepository&#45;&gt;ShoppingSessionModule</title>
<path fill="none" stroke="black" d="M2542,-198.04C2542,-210.56 2542,-225 2542,-225 2542,-225 1511.32,-225 1511.32,-225 1511.32,-225 1511.32,-227.97 1511.32,-227.97"/>
<polygon fill="black" stroke="black" points="1507.82,-227.97 1511.32,-237.97 1514.82,-227.97 1507.82,-227.97"/>
</g>
<!-- ShoppingSessionService -->
<g id="node20" class="node">
<title>ShoppingSessionService</title>
<ellipse fill="#fdb462" stroke="black" cx="2298" cy="-180" rx="106.54" ry="18"/>
<text text-anchor="middle" x="2298" y="-175.8" font-family="Times,serif" font-size="14.00">ShoppingSessionService</text>
</g>
<!-- ShoppingSessionService&#45;&gt;ShoppingSessionModule -->
<g id="edge26" class="edge">
<title>ShoppingSessionService&#45;&gt;ShoppingSessionModule</title>
<path fill="none" stroke="black" d="M2298,-198.11C2298,-207.9 2298,-218 2298,-218 2298,-218 1505.57,-218 1505.57,-218 1505.57,-218 1505.57,-227.89 1505.57,-227.89"/>
<polygon fill="black" stroke="black" points="1502.07,-227.89 1505.57,-237.89 1509.07,-227.89 1502.07,-227.89"/>
</g>
<!-- UserRepository -->
<g id="node22" class="node">
<title>UserRepository</title>
<ellipse fill="#fdb462" stroke="black" cx="230" cy="-104" rx="71.79" ry="18"/>
<text text-anchor="middle" x="230" y="-99.8" font-family="Times,serif" font-size="14.00">UserRepository</text>
</g>
<!-- UserRepository&#45;&gt;UserModule -->
<g id="edge29" class="edge">
<title>UserRepository&#45;&gt;UserModule</title>
<path fill="none" stroke="black" d="M230,-122.01C230,-144.49 230,-180 230,-180 230,-180 1154.71,-180 1154.71,-180"/>
<polygon fill="black" stroke="black" points="1154.71,-183.5 1164.71,-180 1154.71,-176.5 1154.71,-183.5"/>
</g>
<!-- UserService -->
<g id="node23" class="node">
<title>UserService</title>
<ellipse fill="#fdb462" stroke="black" cx="82" cy="-104" rx="58.44" ry="18"/>
<text text-anchor="middle" x="82" y="-99.8" font-family="Times,serif" font-size="14.00">UserService</text>
</g>
<!-- UserService&#45;&gt;UserModule -->
<g id="edge30" class="edge">
<title>UserService&#45;&gt;UserModule</title>
<path fill="none" stroke="black" d="M82,-122.03C82,-146.98 82,-189 82,-189 82,-189 1154.89,-189 1154.89,-189"/>
<polygon fill="black" stroke="black" points="1154.89,-192.5 1164.89,-189 1154.89,-185.5 1154.89,-192.5"/>
</g>
</g>
</svg>
