<?xml version="1.0" encoding="UTF-8" standalone="no"?>
<!DOCTYPE svg PUBLIC "-//W3C//DTD SVG 1.1//EN"
 "http://www.w3.org/Graphics/SVG/1.1/DTD/svg11.dtd">
<!-- Generated by graphviz version 2.47.0 (20210316.0004)
 -->
<!-- Title: dependencies Pages: 1 -->
<svg width="504pt" height="284pt"
 viewBox="0.00 0.00 504.00 284.00" xmlns="http://www.w3.org/2000/svg" xmlns:xlink="http://www.w3.org/1999/xlink">
<g id="graph0" class="graph" transform="scale(1 1) rotate(0) translate(4 280)">
<title>dependencies</title>
<polygon fill="white" stroke="transparent" points="-4,4 -4,-280 500,-280 500,4 -4,4"/>
<text text-anchor="start" x="227.01" y="-42.4" font-family="Times-12" font-weight="bold" font-size="14.00">Legend</text>
<polygon fill="#ffffb3" stroke="transparent" points="14,-10 14,-30 34,-30 34,-10 14,-10"/>
<text text-anchor="start" x="37.63" y="-15.4" font-family="Times-12" font-size="14.00"> &#160;Declarations</text>
<polygon fill="#8dd3c7" stroke="transparent" points="127,-10 127,-30 147,-30 147,-10 127,-10"/>
<text text-anchor="start" x="150.73" y="-15.4" font-family="Times-12" font-size="14.00"> &#160;Module</text>
<polygon fill="#80b1d3" stroke="transparent" points="213,-10 213,-30 233,-30 233,-10 213,-10"/>
<text text-anchor="start" x="236.78" y="-15.4" font-family="Times-12" font-size="14.00"> &#160;Bootstrap</text>
<polygon fill="#fdb462" stroke="transparent" points="310,-10 310,-30 330,-30 330,-10 310,-10"/>
<text text-anchor="start" x="333.67" y="-15.4" font-family="Times-12" font-size="14.00"> &#160;Providers</text>
<polygon fill="#fb8072" stroke="transparent" points="406,-10 406,-30 426,-30 426,-10 406,-10"/>
<text text-anchor="start" x="429.73" y="-15.4" font-family="Times-12" font-size="14.00"> &#160;Exports</text>
<g id="clust1" class="cluster">
<title>cluster_CommonModule</title>
<polygon fill="none" stroke="black" stroke-dasharray="1,5" points="72,-70 72,-268 424,-268 424,-70 72,-70"/>
</g>
<g id="clust4" class="cluster">
<title>cluster_CommonModule_exports</title>
<polygon fill="none" stroke="black" points="103,-208 103,-260 363,-260 363,-208 103,-208"/>
</g>
<g id="clust6" class="cluster">
<title>cluster_CommonModule_providers</title>
<polygon fill="none" stroke="black" points="80,-78 80,-130 416,-130 416,-78 80,-78"/>
</g>
<!-- MonitoringService  -->
<g id="node1" class="node">
<title>MonitoringService </title>
<polygon fill="#fb8072" stroke="black" points="354.75,-252 229.25,-252 229.25,-216 354.75,-216 354.75,-252"/>
<text text-anchor="middle" x="292" y="-229.8" font-family="Times,serif" font-size="14.00">MonitoringService </text>
</g>
<!-- PrismaService  -->
<g id="node2" class="node">
<title>PrismaService </title>
<polygon fill="#fb8072" stroke="black" points="211.36,-252 110.64,-252 110.64,-216 211.36,-216 211.36,-252"/>
<text text-anchor="middle" x="161" y="-229.8" font-family="Times,serif" font-size="14.00">PrismaService </text>
</g>
<!-- CommonModule -->
<g id="node3" class="node">
<title>CommonModule</title>
<polygon fill="#8dd3c7" stroke="black" points="239.67,-187 236.67,-191 215.67,-191 212.67,-187 128.33,-187 128.33,-151 239.67,-151 239.67,-187"/>
<text text-anchor="middle" x="184" y="-164.8" font-family="Times,serif" font-size="14.00">CommonModule</text>
</g>
<!-- CommonModule&#45;&gt;MonitoringService  -->
<g id="edge1" class="edge">
<title>CommonModule&#45;&gt;MonitoringService </title>
<path fill="none" stroke="black" stroke-dasharray="5,2" d="M234.6,-187.11C234.6,-187.11 234.6,-205.99 234.6,-205.99"/>
<polygon fill="black" stroke="black" points="231.1,-205.99 234.6,-215.99 238.1,-205.99 231.1,-205.99"/>
</g>
<!-- CommonModule&#45;&gt;PrismaService  -->
<g id="edge2" class="edge">
<title>CommonModule&#45;&gt;PrismaService </title>
<path fill="none" stroke="black" stroke-dasharray="5,2" d="M169.67,-187.11C169.67,-187.11 169.67,-205.99 169.67,-205.99"/>
<polygon fill="black" stroke="black" points="166.17,-205.99 169.67,-215.99 173.17,-205.99 166.17,-205.99"/>
</g>
<!-- MonitoringService -->
<g id="node4" class="node">
<title>MonitoringService</title>
<ellipse fill="#fdb462" stroke="black" cx="324" cy="-104" rx="83.97" ry="18"/>
<text text-anchor="middle" x="324" y="-99.8" font-family="Times,serif" font-size="14.00">MonitoringService</text>
</g>
<!-- MonitoringService&#45;&gt;CommonModule -->
<g id="edge3" class="edge">
<title>MonitoringService&#45;&gt;CommonModule</title>
<path fill="none" stroke="black" d="M239.76,-104C234.24,-104 230.82,-104 230.82,-104 230.82,-104 230.82,-140.89 230.82,-140.89"/>
<polygon fill="black" stroke="black" points="227.32,-140.89 230.82,-150.89 234.32,-140.89 227.32,-140.89"/>
</g>
<!-- PrismaService -->
<g id="node5" class="node">
<title>PrismaService</title>
<ellipse fill="#fdb462" stroke="black" cx="155" cy="-104" rx="66.63" ry="18"/>
<text text-anchor="middle" x="155" y="-99.8" font-family="Times,serif" font-size="14.00">PrismaService</text>
</g>
<!-- PrismaService&#45;&gt;CommonModule -->
<g id="edge4" class="edge">
<title>PrismaService&#45;&gt;CommonModule</title>
<path fill="none" stroke="black" d="M174.99,-121.42C174.99,-121.42 174.99,-140.62 174.99,-140.62"/>
<polygon fill="black" stroke="black" points="171.49,-140.62 174.99,-150.62 178.49,-140.62 171.49,-140.62"/>
</g>
</g>
</svg>
